<?xml version="1.0" encoding="utf-8"?>
<!-- Generator: Adobe Illustrator 23.0.5, SVG Export Plug-In . SVG Version: 6.00 Build 0)  -->
<svg version="1.1" id="publicdomainvectors.org" xmlns="http://www.w3.org/2000/svg" xmlns:xlink="http://www.w3.org/1999/xlink"
	 x="0px" y="0px" viewBox="0 0 587.95 538.51" style="enable-background:new 0 0 587.95 538.51;" xml:space="preserve">
<style type="text/css">
	.st0{fill-rule:evenodd;clip-rule:evenodd;fill:#B8CEDB;}
	.st1{fill-rule:evenodd;clip-rule:evenodd;fill:#B5A7A3;}
	.st2{fill-rule:evenodd;clip-rule:evenodd;fill:#D6CBC7;}
	.st3{fill-rule:evenodd;clip-rule:evenodd;fill:#7D6F6A;}
	.st4{fill-rule:evenodd;clip-rule:evenodd;fill:#332D2A;}
	.st5{fill-rule:evenodd;clip-rule:evenodd;fill:#F5C390;}
	.st6{fill-rule:evenodd;clip-rule:evenodd;fill:#FFBB00;}
	.st7{fill-rule:evenodd;clip-rule:evenodd;fill:#F29D72;}
	.st8{fill-rule:evenodd;clip-rule:evenodd;fill:#F5793B;}
	.st9{fill-rule:evenodd;clip-rule:evenodd;fill:#D65311;}
	.st10{fill-rule:evenodd;clip-rule:evenodd;fill:#FCC3A6;}
	.st11{fill-rule:evenodd;clip-rule:evenodd;fill:#C44506;}
	.st12{fill-rule:evenodd;clip-rule:evenodd;fill:#D6CAC7;}
</style>
<g>
	<rect x="10.02" y="100.17" class="st0" width="321.74" height="198.24"/>
	<polygon class="st1" points="132.1,1.44 164.26,83.92 193.13,35.55 196.42,37.51 163.54,92.6 128.53,2.83 	"/>
	<path class="st2" d="M163.63,116.44c14.26,0,25.89-8.16,25.89-18.16c0-10-11.63-18.16-25.89-18.16c-14.26,0-25.89,8.16-25.89,18.16
		C137.74,108.28,149.37,116.44,163.63,116.44z"/>
	<rect y="88.26" class="st3" width="321.74" height="198.24"/>
	<rect x="10.29" y="98.55" class="st4" width="301.16" height="177.66"/>
	<g>
		<path class="st5" d="M298.44,538.51c159.46,0,289.51-6.33,289.51-14.08c0-7.75-130.05-14.08-289.51-14.08
			c-159.46,0-289.51,6.33-289.51,14.08C8.93,532.18,138.98,538.51,298.44,538.51z"/>
		<path class="st6" d="M284.15,260.28l6.76-26.7c3.92-15.49,15.78-26.59,31.49-29.47l26.34-4.83c15.95-2.92,30.02-2.97,45.99-0.15
			l25.87,4.58c16.1,2.85,28.24,14.37,31.93,30.3l11.44,49.44L284.15,260.28z"/>
		<path class="st7" d="M353.02,198.57c0.59-0.09,1.17-0.18,1.75-0.26c1.75-0.25,3.21-1.73,3.04-3.49l-2.1-21.48h30.43l2.1,21.75
			c0.17,1.74,1.26,3.22,2.99,3.49c0.59,0.09,1.2,0.19,1.8,0.29c-5.8,0.76-12.22,1.19-18.97,1.19
			C366.49,200.04,359.35,199.51,353.02,198.57z"/>
		<g>
			<g>
				<path class="st8" d="M533.33,425.3c21.78,0,39.54-17.76,39.54-39.54s-17.76-39.54-39.54-39.54c-21.78,0-39.54,17.76-39.54,39.54
					S511.55,425.3,533.33,425.3z"/>
				<path class="st8" d="M537.12,373.3h-72.04v133.24h36.02c19.81,0,36.02-16.21,36.02-36.02V373.3z"/>
			</g>
			<g>
				<path class="st8" d="M83.76,425.3c21.78,0,39.54-17.76,39.54-39.54s-17.76-39.54-39.54-39.54c-21.78,0-39.54,17.76-39.54,39.54
					S61.98,425.3,83.76,425.3z"/>
				<path class="st8" d="M79.97,373.3h72.04v133.24h-36.02c-19.81,0-36.02-16.21-36.02-36.02V373.3z"/>
			</g>
		</g>
		<path class="st9" d="M138.47,250.35h340.16c22.64,0,41.16,18.52,41.16,41.16v191.75c0,22.64-18.52,41.16-41.16,41.16H138.47
			c-22.64,0-41.17-18.52-41.17-41.16V291.51C97.3,268.88,115.83,250.35,138.47,250.35z"/>
		<path class="st10" d="M183,245.38l-6.73-3.13c-5.85-2.72-12.03-2.66-17.75,0.32l-15,7.79l23.91,7.06
			c4.26,1.26,8.01,0.77,10.71-0.93L183,245.38z"/>
		<path class="st11" d="M139.55,476.49h337.99c10.28,0,18.69,8.41,18.69,18.69l0,0c0,10.28-8.41,18.69-18.69,18.69H139.55
			c-10.28,0-18.69-8.41-18.69-18.69l0,0C120.87,484.9,129.27,476.49,139.55,476.49z"/>
		<path class="st6" d="M300.92,215.42l-44.82,50.54l-71.42-23.6c-5.96-1.97-13.62,14.02-8.1,17.02l73.47,39.99
			c9.3,5.06,20.26,3.14,28.35-3.7L332,250.35L300.92,215.42z"/>
		<path class="st7" d="M349.29,136.94h45.78l-7.97,52.84h-22.88c-12.59,0-21.34-10.3-19.44-22.89L349.29,136.94z"/>
		<path class="st4" d="M349.49,121.77h31.96c5.59,0,10.16,4.57,10.16,10.16l0,0c0,5.59-4.57,10.16-10.16,10.16h-31.96
			c-5.59,0-10.16-4.57-10.16-10.16l0,0C339.34,126.34,343.91,121.77,349.49,121.77z"/>
		<path class="st4" d="M382.62,130.44h11.78c6.41,0,10.8,5.24,9.76,11.65l-5.47,33.85c-1.04,6.4-7.12,11.65-13.53,11.65h-11.78
			c-6.41,0-10.8-5.24-9.76-11.65l5.47-33.85C370.13,135.68,376.22,130.44,382.62,130.44z"/>
		<path class="st4" d="M369.9,124.28h7.34c3.99,0,6.73,3.26,6.08,7.25l-3.41,21.09c-0.64,3.99-4.44,7.25-8.43,7.25h-7.34
			c-3.99,0-6.72-3.26-6.08-7.25l3.41-21.09C362.12,127.55,365.91,124.28,369.9,124.28z"/>
		<path class="st7" d="M369.38,154.57L369.38,154.57c4.41,0,7.48,3.61,6.82,8.03l-0.37,2.48c-0.67,4.42-4.82,8.03-9.24,8.03l0,0
			c-4.41,0-7.48-3.61-6.81-8.03l0.37-2.48C360.81,158.18,364.97,154.57,369.38,154.57z"/>
	</g>
	<path class="st12" d="M187.21,43.31l5.54-9.28l5.19,3.1l-5.52,9.25L187.21,43.31L187.21,43.31z M130.75,11.56L127.1,2.2l5.64-2.2
		l3.61,9.25L130.75,11.56z"/>
</g>
</svg>
